<svg width="14" height="10" viewBox="0 0 14 10" fill="none" xmlns="http://www.w3.org/2000/svg">
<path d="M0.415559 2.68191C4.18743 -0.816242 10.0538 -0.814961 13.8242 2.68191C13.966 2.81341 13.9687 3.03606 13.8316 3.17247L13.1027 3.89763C12.9719 4.02785 12.7616 4.03062 12.6258 3.90574C9.5192 1.05206 4.72095 1.05142 1.61374 3.90574C1.47791 4.03062 1.26757 4.02764 1.13685 3.89763L0.407893 3.17247C0.271002 3.03606 0.27377 2.81341 0.415559 2.68191ZM7.11986 6.88986C7.87245 6.88986 8.48239 7.50145 8.48239 8.25607C8.48239 9.0107 7.87245 9.62229 7.11986 9.62229C6.36727 9.62229 5.75733 9.0107 5.75733 8.25607C5.75733 7.50145 6.36727 6.88986 7.11986 6.88986ZM2.8051 5.10545C5.25894 2.92954 8.98355 2.93189 11.4346 5.10545C11.5815 5.23567 11.5862 5.46174 11.4468 5.59964L10.7135 6.32523C10.5858 6.4516 10.3801 6.46014 10.2441 6.3423C8.45685 4.79314 5.77883 4.79656 3.99583 6.3423C3.85979 6.46014 3.65413 6.45182 3.52639 6.32523L2.79318 5.59964C2.65352 5.46174 2.65842 5.23546 2.8051 5.10545Z" fill="black"/>
</svg>
